<svg width="100" height="100" xmlns="http://www.w3.org/2000/svg">
  <defs>
    <pattern id="grex" x="0" y="0" width="100" height="100" patternUnits="userSpaceOnUse">
      <!-- Main cellular elements -->
      <circle cx="20" cy="20" r="6" fill="none" stroke="rgba(0,0,0,0.2)" stroke-width="1"/>
      <circle cx="75" cy="25" r="4" fill="none" stroke="rgba(0,0,0,0.15)" stroke-width="0.8"/>
      <circle cx="30" cy="70" r="5" fill="none" stroke="rgba(0,0,0,0.18)" stroke-width="0.9"/>
      <circle cx="70" cy="75" r="3" fill="none" stroke="rgba(0,0,0,0.12)" stroke-width="0.7"/>
      
      <!-- Organic shapes -->
      <path d="M10 40 Q25 35 35 40 Q30 55 15 60 Q5 55 10 40" fill="none" stroke="rgba(0,0,0,0.15)" stroke-width="0.8"/>
      <path d="M60 10 Q75 15 80 30 Q75 45 60 40 Q55 25 60 10" fill="none" stroke="rgba(0,0,0,0.12)" stroke-width="0.6"/>
      <path d="M80 55 Q90 65 85 80 Q70 85 65 75 Q70 60 80 55" fill="none" stroke="rgba(0,0,0,0.14)" stroke-width="0.7"/>
      
      <!-- Connections -->
      <path d="M20 20 Q35 25 30 70" stroke="rgba(0,0,0,0.08)" stroke-width="0.4" fill="none"/>
      <path d="M75 25 Q65 40 70 75" stroke="rgba(0,0,0,0.06)" stroke-width="0.3" fill="none"/>
      <path d="M20 20 Q45 30 60 10" stroke="rgba(0,0,0,0.07)" stroke-width="0.3" fill="none"/>
      <path d="M30 70 Q50 65 70 75" stroke="rgba(0,0,0,0.05)" stroke-width="0.3" fill="none"/>
      
      <!-- Detail elements -->
      <circle cx="50" cy="50" r="2" fill="rgba(0,0,0,0.1)"/>
      <circle cx="15" cy="85" r="2.5" fill="rgba(0,0,0,0.08)"/>
      <circle cx="85" cy="15" r="1.5" fill="rgba(0,0,0,0.06)"/>
    </pattern>
  </defs>
  <rect width="100" height="100" fill="url(#grex)"/>
</svg> 